<?xml version="1.0" standalone="no"?>
<!DOCTYPE svg PUBLIC "-//W3C//DTD SVG 20010904//EN"
 "http://www.w3.org/TR/2001/REC-SVG-20010904/DTD/svg10.dtd">
<svg version="1.0" xmlns="http://www.w3.org/2000/svg"
 width="90.000000pt" height="107.000000pt" viewBox="0 0 90.000000 107.000000"
 preserveAspectRatio="xMidYMid meet">
<metadata>
Created by potrace 1.10, written by Peter Selinger 2001-2011
</metadata>
<g transform="translate(0.000000,107.000000) scale(0.100000,-0.100000)"
fill="#000000" stroke="none">
<path d="M699 1044 c-33 -17 -134 -31 -281 -39 -194 -10 -288 -53 -341 -156
-44 -86 -47 -161 -11 -321 5 -21 2 -28 -8 -28 -8 0 -23 -9 -33 -20 -18 -20
-18 -23 -1 -95 20 -84 51 -121 93 -110 18 4 23 1 23 -13 0 -10 16 -45 36 -78
76 -127 153 -175 279 -175 134 0 220 60 289 201 24 49 36 64 49 62 33 -7 66
26 82 80 27 93 17 148 -28 148 -14 0 -17 4 -12 18 33 81 41 183 21 263 -20 76
-52 125 -103 159 -21 13 -40 26 -42 27 -3 2 5 12 17 23 12 11 19 27 16 35 -4
8 -1 15 6 15 6 0 8 5 5 10 -8 13 -24 11 -56 -6z m11 -44 c-14 -11 -38 -20 -53
-20 -19 0 -27 -4 -24 -12 2 -7 14 -12 26 -11 12 2 30 -5 40 -15 11 -9 31 -25
45 -35 73 -50 105 -157 86 -285 -7 -42 -14 -81 -17 -85 -3 -5 -13 9 -23 30
-17 39 -62 81 -151 141 -29 19 -51 44 -58 62 -6 18 -15 29 -21 25 -21 -13 16
-70 71 -108 80 -55 137 -112 145 -144 7 -31 41 -73 60 -73 6 0 16 -6 22 -13
15 -18 -22 -143 -45 -151 -26 -10 -27 1 -5 61 14 37 18 61 12 67 -15 15 -25
-1 -50 -79 -48 -149 -120 -254 -205 -298 -57 -30 -164 -29 -223 2 -90 46 -150
132 -197 281 -30 93 -40 109 -55 94 -7 -7 -4 -29 10 -69 11 -32 18 -60 16 -62
-2 -3 -13 0 -24 6 -20 11 -59 132 -47 150 3 6 15 11 25 11 10 0 21 4 24 9 3 4
19 11 35 14 34 7 61 49 61 94 0 69 41 147 94 175 11 7 72 15 134 18 85 5 117
11 129 23 21 21 11 32 -16 18 -11 -6 -64 -13 -118 -14 -65 -3 -108 -9 -128
-19 -67 -36 -115 -113 -115 -186 0 -41 -30 -92 -55 -92 -16 0 -45 118 -45 183
0 102 52 197 129 237 57 28 107 38 231 45 126 6 247 22 270 36 28 16 35 9 10
-11z"/>
<path d="M343 589 c-14 -15 -38 -23 -72 -27 -65 -6 -66 -22 -2 -22 39 0 56 6
80 26 30 25 40 44 23 44 -4 0 -17 -10 -29 -21z"/>
<path d="M530 603 c1 -31 57 -63 112 -63 63 0 62 16 -2 22 -33 3 -59 13 -73
27 -24 22 -37 27 -37 14z"/>
<path d="M302 473 c4 -51 33 -54 33 -3 0 26 -5 36 -18 38 -16 3 -18 -2 -15
-35z"/>
<path d="M572 473 c2 -26 8 -38 18 -38 10 0 16 12 18 38 3 32 0 37 -18 37 -18
0 -21 -5 -18 -37z"/>
<path d="M446 463 c-3 -3 -6 -19 -6 -34 0 -15 -4 -39 -10 -53 -11 -30 4 -46
18 -19 22 43 21 128 -2 106z"/>
<path d="M391 205 c-43 -20 -62 -35 -56 -46 3 -4 28 4 55 18 56 29 100 27 145
-9 18 -14 30 -17 36 -11 15 15 -55 55 -104 59 -24 3 -56 -2 -76 -11z"/>
<path d="M410 150 c0 -5 18 -10 40 -10 22 0 40 5 40 10 0 6 -18 10 -40 10 -22
0 -40 -4 -40 -10z"/>
</g>
</svg>
