<?xml version="1.0" standalone="no"?>
<!DOCTYPE svg PUBLIC "-//W3C//DTD SVG 20010904//EN"
 "http://www.w3.org/TR/2001/REC-SVG-20010904/DTD/svg10.dtd">
<svg version="1.0" xmlns="http://www.w3.org/2000/svg"
 width="90.000000pt" height="107.000000pt" viewBox="0 0 90.000000 107.000000"
 preserveAspectRatio="xMidYMid meet">
<metadata>
Created by potrace 1.10, written by Peter Selinger 2001-2011
</metadata>
<g transform="translate(0.000000,107.000000) scale(0.100000,-0.100000)"
fill="#000000" stroke="none">
<path d="M709 1045 c-34 -19 -137 -35 -224 -35 -160 -1 -292 -36 -353 -93 -79
-74 -102 -233 -57 -392 4 -14 0 -23 -16 -30 -41 -18 -45 -39 -26 -112 20 -79
54 -118 93 -109 18 5 24 2 24 -9 0 -28 50 -116 93 -162 63 -69 121 -94 219
-94 137 0 219 56 292 201 26 54 36 64 54 62 35 -5 67 36 81 105 15 76 7 111
-26 119 -14 4 -22 12 -19 20 36 95 39 235 6 311 -21 49 -88 124 -121 135 -11
4 -10 9 5 27 22 24 31 71 13 71 -7 -1 -24 -7 -38 -15z m11 -45 c-14 -11 -38
-20 -53 -20 -19 0 -27 -4 -24 -12 2 -7 16 -12 31 -10 14 1 26 -1 26 -6 0 -4
21 -23 46 -40 66 -47 95 -116 95 -222 0 -44 -5 -98 -11 -121 l-11 -41 -21 41
c-19 39 -58 75 -165 151 -25 18 -43 38 -43 49 0 22 -16 36 -24 22 -14 -22 18
-63 87 -114 89 -66 125 -103 134 -137 10 -38 33 -70 53 -70 10 0 22 -6 28 -13
22 -26 -40 -178 -64 -155 -3 4 3 34 14 67 13 38 17 63 11 67 -13 8 -20 1 -44
-49 -26 -54 -76 -81 -123 -67 -18 5 -62 32 -98 60 -92 72 -106 73 -187 11 -86
-65 -102 -73 -142 -73 -47 0 -81 27 -101 78 -9 24 -23 44 -30 44 -18 0 -18 -6
6 -75 11 -32 18 -60 16 -62 -12 -12 -47 22 -56 55 -23 87 -24 101 -4 108 11 3
28 10 39 14 11 5 30 11 42 15 26 7 53 61 53 107 0 41 30 106 61 135 37 33 73
43 160 43 79 0 149 18 149 39 0 14 -23 14 -35 2 -6 -6 -55 -12 -111 -14 -82
-3 -108 -8 -142 -27 -60 -34 -92 -85 -102 -165 -8 -65 -29 -105 -55 -105 -21
0 -40 90 -40 185 0 104 18 150 81 204 61 54 110 68 279 76 124 7 220 20 258
35 37 15 43 11 17 -10z m-237 -592 c12 -6 50 -33 85 -59 73 -57 122 -70 165
-45 17 9 31 15 34 13 2 -2 -15 -40 -37 -84 -92 -184 -243 -247 -392 -166 -70
38 -143 135 -172 230 -7 22 -6 22 21 8 53 -28 96 -14 199 64 37 28 69 51 71
51 2 0 14 -5 26 -12z"/>
<path d="M260 570 c0 -6 27 -10 60 -10 33 0 60 4 60 10 0 6 -27 10 -60 10 -33
0 -60 -4 -60 -10z"/>
<path d="M540 570 c0 -6 28 -10 65 -10 37 0 65 4 65 10 0 6 -28 10 -65 10 -37
0 -65 -4 -65 -10z"/>
<path d="M317 523 c-10 -10 -8 -71 2 -78 22 -13 37 57 16 75 -6 5 -15 7 -18 3z"/>
<path d="M584 516 c-10 -26 0 -71 16 -71 22 0 27 70 5 79 -9 3 -18 0 -21 -8z"/>
<path d="M450 335 c0 -38 4 -55 11 -53 7 2 12 25 12 53 0 28 -5 51 -12 53 -7
2 -11 -15 -11 -53z"/>
<path d="M383 265 c5 -14 67 -25 102 -19 94 17 86 29 -20 29 -51 0 -84 -4 -82
-10z"/>
<path d="M252 258 c-17 -17 -15 -63 3 -78 19 -16 34 -5 17 12 -16 16 -15 45 2
51 17 7 38 -15 34 -33 -2 -7 3 -15 10 -17 18 -7 15 42 -4 61 -18 19 -45 21
-62 4z"/>
<path d="M376 221 c-4 -5 -2 -13 4 -16 20 -13 115 -17 143 -6 36 14 36 34 0
24 -36 -10 -92 -10 -120 0 -12 4 -24 4 -27 -2z"/>
<path d="M375 170 c-9 -15 31 -30 82 -30 61 0 95 9 90 24 -3 6 -11 9 -18 7
-36 -11 -91 -12 -119 -3 -17 6 -32 7 -35 2z"/>
</g>
</svg>
