<?xml version="1.0" standalone="no"?>
<!DOCTYPE svg PUBLIC "-//W3C//DTD SVG 20010904//EN"
 "http://www.w3.org/TR/2001/REC-SVG-20010904/DTD/svg10.dtd">
<svg version="1.0" xmlns="http://www.w3.org/2000/svg"
 width="88.000000pt" height="115.000000pt" viewBox="0 0 88.000000 115.000000"
 preserveAspectRatio="xMidYMid meet">
<metadata>
Created by potrace 1.10, written by Peter Selinger 2001-2011
</metadata>
<g transform="translate(0.000000,115.000000) scale(0.100000,-0.100000)"
fill="#000000" stroke="none">
<path d="M700 1131 c-29 -17 -127 -31 -275 -40 -221 -13 -305 -52 -360 -166
-36 -72 -42 -152 -20 -250 l17 -77 -32 -27 -32 -26 17 -65 c19 -74 46 -110 84
-111 22 0 31 -10 53 -58 16 -32 46 -79 68 -104 27 -31 40 -54 40 -75 0 -64 84
-123 175 -124 96 -1 185 62 185 130 0 13 17 44 39 68 21 24 51 71 67 104 24
50 33 60 55 60 33 0 63 34 78 90 7 25 15 53 17 63 4 11 -6 28 -27 48 l-32 30
14 57 c15 63 18 158 6 213 -10 50 -60 121 -107 154 -42 29 -50 49 -25 59 8 3
15 14 15 25 0 11 6 22 13 24 8 4 7 6 -3 6 -8 0 -22 -3 -30 -8z m-9 -41 c-13
-11 -34 -20 -48 -20 -15 0 -23 -5 -20 -12 2 -7 14 -12 26 -11 12 2 30 -5 40
-15 94 -88 102 -97 116 -145 18 -60 19 -146 3 -219 l-11 -53 -13 30 c-14 34
-85 103 -157 153 -27 18 -54 46 -62 65 -11 26 -15 29 -20 14 -11 -26 17 -60
98 -120 80 -60 114 -96 124 -136 8 -32 32 -58 58 -63 11 -2 21 -11 23 -20 6
-30 -29 -128 -50 -139 -11 -6 -21 -9 -24 -7 -2 2 5 28 16 56 24 62 25 82 5 82
-9 0 -22 -25 -36 -72 -25 -86 -90 -216 -123 -247 l-22 -21 -16 34 c-16 33 -16
34 19 82 19 27 53 86 75 131 36 73 40 88 33 129 -8 56 -59 117 -113 135 -23 8
-91 13 -178 13 -124 0 -145 -3 -186 -22 -50 -25 -98 -97 -98 -149 0 -34 57
-156 109 -233 37 -55 37 -55 21 -89 l-17 -33 -32 38 c-39 47 -81 134 -112 232
-13 41 -29 72 -36 72 -18 0 -16 -17 6 -83 15 -43 17 -57 7 -57 -22 0 -43 33
-56 88 -13 57 -9 82 15 82 8 0 23 4 33 9 9 5 25 12 34 15 27 8 49 50 58 115
10 73 34 115 80 144 28 18 56 23 143 28 93 5 111 8 130 27 16 17 18 22 6 22
-8 0 -19 -4 -25 -10 -5 -5 -54 -11 -109 -13 -166 -5 -233 -58 -248 -196 -7
-58 -29 -101 -52 -101 -37 0 -60 211 -31 293 22 59 62 103 121 133 49 24 76
28 228 40 162 12 251 25 264 38 4 3 11 6 17 6 6 -1 0 -10 -13 -20z m-100 -411
c67 -15 101 -54 107 -122 5 -59 -6 -86 -81 -210 -31 -49 -46 -66 -57 -61 -8 4
-39 13 -67 21 -46 12 -60 12 -105 0 -29 -8 -60 -17 -68 -21 -11 -4 -26 11 -51
52 -115 179 -121 255 -27 325 44 33 231 41 349 16z m-68 -408 c19 -8 35 -27
52 -63 31 -67 31 -89 0 -127 -61 -72 -207 -72 -275 1 -27 29 -25 64 8 129 21
42 35 57 62 67 38 13 108 10 153 -7z"/>
<path d="M260 591 c-18 -34 -12 -78 12 -95 30 -21 44 -20 68 4 25 25 26 72 2
93 -25 23 -69 22 -82 -2z m68 -13 c17 -17 15 -38 -4 -59 -13 -14 -21 -16 -35
-8 -32 16 -19 79 16 79 6 0 16 -5 23 -12z"/>
<path d="M537 592 c-33 -36 -7 -112 38 -112 25 0 55 38 55 68 0 54 -60 81 -93
44z m63 -17 c15 -18 6 -61 -15 -68 -32 -13 -59 45 -33 71 16 16 33 15 48 -3z"/>
<path d="M393 229 c-29 -9 -83 -60 -83 -79 0 -26 24 -62 52 -80 93 -56 236 15
196 98 -27 53 -100 81 -165 61z m121 -40 c38 -30 36 -73 -6 -99 -68 -41 -168
-11 -168 50 0 42 40 70 100 70 33 0 55 -6 74 -21z"/>
<path d="M390 180 c0 -5 23 -10 50 -10 28 0 50 5 50 10 0 6 -22 10 -50 10 -27
0 -50 -4 -50 -10z"/>
<path d="M354 151 c-16 -16 7 -21 81 -19 47 2 84 7 83 12 -3 9 -155 15 -164 7z"/>
<path d="M390 100 c0 -5 23 -10 50 -10 28 0 50 5 50 10 0 6 -22 10 -50 10 -27
0 -50 -4 -50 -10z"/>
</g>
</svg>
