<?xml version="1.0" standalone="no"?>
<!DOCTYPE svg PUBLIC "-//W3C//DTD SVG 20010904//EN"
 "http://www.w3.org/TR/2001/REC-SVG-20010904/DTD/svg10.dtd">
<svg version="1.0" xmlns="http://www.w3.org/2000/svg"
 width="90.000000pt" height="107.000000pt" viewBox="0 0 90.000000 107.000000"
 preserveAspectRatio="xMidYMid meet">
<metadata>
Created by potrace 1.10, written by Peter Selinger 2001-2011
</metadata>
<g transform="translate(0.000000,107.000000) scale(0.100000,-0.100000)"
fill="#000000" stroke="none">
<path d="M671 1038 c-38 -13 -103 -22 -214 -28 -167 -11 -217 -20 -278 -51
-52 -26 -114 -101 -130 -156 -23 -77 -15 -210 16 -285 5 -14 2 -18 -12 -18
-45 0 -55 -55 -28 -148 16 -54 49 -87 81 -80 13 2 26 -14 50 -62 73 -145 155
-201 292 -201 66 0 90 5 130 25 62 32 132 109 163 180 19 43 29 56 46 56 40 0
72 40 90 113 19 73 15 94 -26 112 -16 7 -20 16 -16 30 48 167 21 324 -68 400
-22 19 -47 35 -54 35 -19 0 -16 13 8 28 11 7 18 19 15 27 -3 8 -1 17 4 20 14
9 12 25 -2 24 -7 -1 -37 -10 -67 -21z m30 -38 c-13 -11 -34 -20 -48 -20 -15 0
-23 -5 -20 -12 2 -7 16 -12 31 -10 18 2 25 -1 21 -7 -3 -6 -2 -11 3 -11 18 0
94 -74 112 -111 11 -21 23 -65 26 -97 7 -63 -12 -202 -27 -202 -5 0 -9 9 -9
20 0 26 -49 81 -113 126 -76 54 -107 85 -107 106 0 10 -4 18 -10 18 -11 0 -13
-30 -4 -54 3 -9 41 -40 83 -70 85 -59 128 -104 137 -143 9 -35 34 -63 57 -63
9 0 20 -6 23 -14 9 -25 -27 -136 -48 -147 -11 -6 -22 -9 -24 -6 -2 2 5 30 16
62 14 40 17 62 10 69 -15 15 -23 0 -49 -84 -45 -144 -104 -234 -182 -279 -186
-106 -367 11 -449 292 -21 69 -35 89 -52 71 -4 -3 3 -32 14 -65 11 -33 17 -63
14 -67 -13 -12 -44 34 -59 88 -17 58 -11 80 24 80 11 0 19 4 19 9 0 5 12 11
27 13 37 4 62 44 70 108 7 70 34 122 75 151 27 20 49 24 146 30 85 4 117 10
129 22 19 19 10 35 -10 19 -7 -6 -58 -13 -113 -15 -164 -5 -222 -50 -249 -192
-23 -121 -62 -141 -85 -45 -34 144 -2 279 81 340 58 42 123 58 259 65 126 6
247 22 270 36 28 16 35 8 11 -11z"/>
<path d="M638 933 c6 -2 18 -2 25 0 6 3 1 5 -13 5 -14 0 -19 -2 -12 -5z"/>
<path d="M632 770 c0 -14 2 -19 5 -12 2 6 2 18 0 25 -3 6 -5 1 -5 -13z"/>
<path d="M248 579 c-18 -10 -25 -39 -9 -39 5 0 14 7 21 15 15 18 53 19 80 3
26 -16 40 0 16 18 -23 16 -83 18 -108 3z"/>
<path d="M540 575 c-18 -22 -8 -26 29 -12 27 10 37 9 61 -5 35 -20 50 -6 18
16 -29 20 -92 21 -108 1z"/>
<path d="M302 521 c-19 -11 -12 -76 8 -76 10 0 16 12 18 34 4 38 -7 54 -26 42z"/>
<path d="M571 516 c-17 -20 -10 -71 9 -71 10 0 16 12 18 34 4 40 -9 58 -27 37z"/>
<path d="M436 458 c-10 -30 -14 -118 -7 -118 19 0 39 114 22 124 -6 4 -13 1
-15 -6z"/>
<path d="M385 266 c-16 -8 -39 -21 -49 -29 -19 -14 -19 -16 -3 -59 24 -61 68
-102 111 -102 48 0 80 26 109 86 29 61 25 70 -38 99 -47 22 -89 23 -130 5z
m143 -35 c12 -6 22 -13 22 -15 0 -6 -22 -66 -24 -66 -2 0 -18 8 -36 17 -31 15
-37 15 -78 1 l-44 -16 -13 31 c-12 29 -11 33 7 46 43 30 112 31 166 2z m-30
-93 c16 -16 -14 -37 -54 -38 -38 0 -66 26 -43 41 20 13 83 11 97 -3z"/>
</g>
</svg>
