<?xml version="1.0" standalone="no"?>
<!DOCTYPE svg PUBLIC "-//W3C//DTD SVG 20010904//EN"
 "http://www.w3.org/TR/2001/REC-SVG-20010904/DTD/svg10.dtd">
<svg version="1.0" xmlns="http://www.w3.org/2000/svg"
 width="90.000000pt" height="107.000000pt" viewBox="0 0 90.000000 107.000000"
 preserveAspectRatio="xMidYMid meet">
<metadata>
Created by potrace 1.10, written by Peter Selinger 2001-2011
</metadata>
<g transform="translate(0.000000,107.000000) scale(0.100000,-0.100000)"
fill="#000000" stroke="none">
<path d="M671 1038 c-38 -13 -103 -22 -214 -28 -88 -6 -179 -15 -201 -21 -95
-26 -164 -81 -200 -159 -25 -56 -27 -209 -3 -282 14 -45 14 -48 -2 -48 -43 0
-53 -57 -26 -148 17 -56 51 -88 84 -79 14 3 21 -2 25 -19 11 -42 75 -141 113
-174 58 -52 113 -71 198 -71 133 0 228 65 292 201 21 44 33 59 49 59 42 1 71
37 89 111 16 65 16 72 1 95 -9 14 -24 25 -32 25 -13 0 -15 6 -10 28 34 155 32
234 -10 320 -23 47 -76 99 -117 115 -8 3 -3 11 11 22 16 11 21 23 17 36 -4 11
-2 19 4 19 6 0 11 5 11 10 0 13 -14 11 -79 -12z m30 -38 c-13 -11 -34 -20 -47
-20 -12 0 -25 -4 -28 -9 -7 -11 22 -23 35 -16 4 3 16 -1 26 -10 10 -8 36 -30
57 -48 71 -58 97 -155 76 -287 -7 -44 -16 -80 -21 -80 -5 0 -9 9 -9 20 0 29
-60 91 -141 147 -52 35 -72 55 -76 75 -6 33 -23 38 -23 7 0 -36 18 -56 99
-113 79 -55 112 -90 126 -135 10 -33 36 -61 57 -61 27 0 29 -15 12 -85 -11
-43 -23 -69 -36 -76 -11 -6 -22 -9 -24 -6 -2 2 5 30 16 62 14 40 17 62 10 69
-16 16 -25 -1 -60 -107 -65 -200 -161 -291 -305 -291 -84 0 -130 21 -191 86
-56 59 -77 97 -115 208 -35 104 -44 119 -58 105 -6 -6 -3 -32 10 -69 21 -64
20 -70 -4 -60 -19 7 -59 126 -51 149 4 8 14 15 24 15 11 0 22 5 25 10 3 6 16
10 29 10 36 0 55 31 71 114 18 93 25 107 71 143 33 25 46 28 151 34 86 4 118
10 130 22 21 21 11 32 -15 18 -10 -5 -64 -12 -118 -14 -65 -2 -110 -9 -130
-20 -66 -34 -114 -114 -114 -190 0 -44 -27 -86 -56 -87 -17 0 -39 107 -39 185
1 84 17 135 58 181 58 67 127 90 297 99 126 6 247 22 270 36 28 16 35 8 11
-11z"/>
<path d="M638 933 c7 -3 16 -2 19 1 4 3 -2 6 -13 5 -11 0 -14 -3 -6 -6z"/>
<path d="M248 579 c-10 -5 -18 -17 -18 -24 0 -19 8 -19 26 0 18 18 65 20 82 3
17 -17 28 -2 12 17 -14 17 -76 20 -102 4z"/>
<path d="M540 575 c-17 -21 -7 -29 18 -16 29 15 58 14 76 -4 18 -19 26 -19 26
0 0 33 -96 49 -120 20z"/>
<path d="M294 517 c-10 -27 0 -72 16 -72 11 0 15 11 15 39 0 40 -20 61 -31 33z"/>
<path d="M572 521 c-19 -11 -12 -76 8 -76 10 0 16 12 18 34 4 38 -7 54 -26 42z"/>
<path d="M436 458 c-11 -34 -16 -118 -7 -118 18 0 38 114 22 125 -6 3 -13 0
-15 -7z"/>
<path d="M330 205 c0 -12 19 -15 115 -15 96 0 115 3 115 15 0 12 -19 15 -115
15 -96 0 -115 -3 -115 -15z"/>
</g>
</svg>
