<?xml version="1.0" standalone="no"?>
<!DOCTYPE svg PUBLIC "-//W3C//DTD SVG 20010904//EN"
 "http://www.w3.org/TR/2001/REC-SVG-20010904/DTD/svg10.dtd">
<svg version="1.0" xmlns="http://www.w3.org/2000/svg"
 width="89.000000pt" height="112.000000pt" viewBox="0 0 89.000000 112.000000"
 preserveAspectRatio="xMidYMid meet">
<metadata>
Created by potrace 1.10, written by Peter Selinger 2001-2011
</metadata>
<g transform="translate(0.000000,112.000000) scale(0.100000,-0.100000)"
fill="#000000" stroke="none">
<path d="M661 1088 c-39 -13 -102 -22 -213 -28 -211 -12 -260 -26 -338 -96
-81 -74 -105 -239 -56 -390 5 -17 2 -23 -18 -28 -13 -3 -27 -13 -30 -22 -8
-21 11 -130 29 -165 14 -26 57 -45 75 -34 6 4 10 2 10 -4 0 -6 -13 -17 -29
-25 -16 -9 -31 -22 -35 -31 -3 -10 20 -65 57 -135 57 -110 64 -120 91 -120 29
0 95 34 108 56 6 9 17 9 45 -2 48 -17 118 -17 165 0 32 12 39 11 50 -1 17 -21
84 -53 110 -53 19 0 34 20 86 119 34 65 62 123 62 130 0 6 -16 21 -35 32 -40
24 -46 38 -12 32 35 -7 66 26 82 87 23 87 20 118 -12 132 -16 7 -29 12 -30 13
-1 1 4 23 13 50 15 53 20 181 8 230 -16 68 -86 160 -135 177 -11 4 -10 9 5 27
22 24 31 72 13 70 -7 -1 -36 -10 -66 -21z m34 -38 c-10 -11 -31 -20 -47 -20
-19 0 -28 -4 -25 -12 2 -7 16 -12 31 -10 14 1 26 -1 26 -6 0 -5 18 -21 39 -35
62 -42 94 -104 99 -199 3 -45 -1 -104 -8 -135 l-12 -54 -21 42 c-15 30 -46 60
-114 111 -60 45 -93 76 -93 88 0 25 -18 36 -26 16 -9 -23 21 -63 74 -99 72
-49 152 -131 152 -155 0 -28 29 -62 53 -62 26 0 31 -23 17 -82 -13 -55 -34
-88 -56 -88 -10 0 -8 14 7 57 22 66 24 83 6 83 -7 0 -24 -33 -38 -77 -24 -75
-26 -78 -62 -85 -35 -7 -40 -5 -68 27 -30 34 -157 105 -188 105 -31 0 -138
-58 -179 -97 -37 -35 -46 -39 -78 -34 -35 6 -37 8 -60 84 -16 50 -30 77 -39
77 -20 0 -19 -20 5 -82 11 -28 17 -54 14 -57 -12 -13 -40 20 -56 65 -22 65
-22 93 0 100 9 3 24 8 32 11 8 4 21 7 29 9 28 6 62 50 67 90 3 21 7 54 10 72
6 37 53 96 95 118 18 9 58 14 114 14 107 0 177 25 148 53 -3 4 -13 1 -22 -7
-11 -9 -50 -15 -116 -18 -164 -7 -226 -56 -246 -194 -14 -99 -55 -136 -79 -71
-19 51 -25 190 -10 241 23 84 87 146 175 171 28 8 104 17 170 20 134 7 241 21
264 35 27 16 35 11 16 -10z m-210 -630 c61 -26 132 -76 146 -102 10 -19 5 -36
-37 -119 l-49 -98 -52 -12 c-42 -10 -64 -10 -105 0 l-53 13 -49 99 -50 99 40
41 c29 30 135 95 161 99 1 0 22 -9 48 -20z m-283 -137 c9 -10 34 -55 57 -100
l41 -83 -20 -20 c-11 -11 -24 -20 -29 -20 -5 0 -35 48 -66 107 -51 99 -54 109
-38 120 23 17 37 16 55 -4z m532 4 c18 -13 15 -20 -40 -124 -58 -108 -60 -110
-82 -95 -30 19 -28 41 9 115 58 115 76 131 113 104z m-542 -181 c18 -37 26
-62 20 -68 -6 -6 -32 32 -70 104 -39 73 -56 115 -49 120 11 7 35 -32 99 -156z
m606 145 c-2 -4 -29 -55 -62 -115 -38 -71 -61 -105 -68 -98 -14 14 102 231
120 225 7 -3 12 -8 10 -12z"/>
<path d="M235 620 c-4 -6 15 -10 49 -10 31 0 59 0 63 -1 4 0 9 4 11 10 5 14
-114 15 -123 1z"/>
<path d="M522 619 c2 -6 7 -10 11 -10 4 1 32 1 63 1 34 0 53 4 49 10 -9 14
-128 13 -123 -1z"/>
<path d="M295 568 c-9 -22 -2 -68 10 -71 14 -3 19 63 6 76 -7 7 -12 5 -16 -5z"/>
<path d="M567 573 c-11 -11 -8 -71 4 -79 14 -8 29 14 29 42 0 23 -23 48 -33
37z"/>
<path d="M390 373 c-40 -27 -49 -45 -50 -91 -1 -120 162 -142 200 -27 29 87
-76 169 -150 118z m108 -36 c31 -28 30 -80 -3 -112 -28 -29 -54 -31 -94 -10
-44 22 -55 71 -25 113 31 45 78 49 122 9z"/>
<path d="M402 318 c-18 -18 -15 -53 6 -71 24 -22 45 -21 65 1 34 37 15 82 -33
82 -14 0 -31 -5 -38 -12z m65 -24 c3 -8 -2 -23 -11 -32 -14 -15 -18 -15 -31
-1 -9 9 -13 23 -9 32 8 21 43 22 51 1z"/>
</g>
</svg>
